<?xml version="1.0" encoding="UTF-8" standalone="no"?>
<svg
   height="128px"
   viewBox="0 0 128 128"
   width="128px"
   version="1.1"
   id="svg3"
   sodipodi:docname="rs.ruffle.Ruffle.svg"
   xml:space="preserve"
   inkscape:version="1.4.2 (ebf0e940d0, 2025-05-08)"
   xmlns:inkscape="http://www.inkscape.org/namespaces/inkscape"
   xmlns:sodipodi="http://sodipodi.sourceforge.net/DTD/sodipodi-0.dtd"
   xmlns:xlink="http://www.w3.org/1999/xlink"
   xmlns="http://www.w3.org/2000/svg"
   xmlns:svg="http://www.w3.org/2000/svg"
   xmlns:ffdec="https://www.free-decompiler.com/flash"><defs
     id="defs3"><g
       id="shape0"
       transform="matrix(1.0, 0.0, 0.0, 1.0, 26.7, 7.65)"><path
         d="M-26.7 -7.65 L70.35 -7.65 70.35 89.4 -26.7 89.4 -26.7 -7.65"
         fill="#000000"
         fill-opacity="0.003921569"
         fill-rule="evenodd"
         stroke="none"
         id="path6" /></g><g
       id="shape1"
       transform="matrix(1.0, 0.0, 0.0, 1.0, 22.5, 30.55)"><path
         d="M-7.75 1.35 L-8.3 1.0 Q-13.55 -2.2 -15.85 -5.1 -18.2 -8.05 -19.85 -11.15 -21.5 -14.3 -21.5 -18.25 -21.5 -22.9 -19.5 -25.95 -17.8 -28.55 -15.2 -29.3 -12.7 -30.05 -10.85 -28.75 -8.85 -27.45 -8.9 -25.55 -9.0 -23.75 -10.65 -20.6 -12.35 -17.5 -10.85 -12.9 -9.5 -8.75 -5.75 -6.45 -8.0 -4.05 -8.0 -1.35 L-7.75 1.35"
         fill="#7c7fd0"
         fill-rule="evenodd"
         stroke="none"
         id="path7" /><path
         d="M-5.75 -6.45 L-4.05 -5.6 0.15 -3.85 Q1.7 1.4 -0.75 4.45 -5.5 2.65 -7.55 1.45 L-7.65 1.4 -7.75 1.35 -8.0 -1.35 Q-8.0 -4.05 -5.75 -6.45 M-4.15 -2.45 L-4.05 -2.5 -4.35 -2.7 -4.15 -2.45"
         fill="#5e61bb"
         fill-rule="evenodd"
         stroke="none"
         id="path8" /><path
         d="M-7.75 1.35 L-8.3 1.0 Q-13.55 -2.2 -15.85 -5.1 -18.2 -8.05 -19.85 -11.15 -21.5 -14.3 -21.5 -18.25 -21.5 -22.9 -19.5 -25.95 -17.8 -28.55 -15.2 -29.3 -12.7 -30.05 -10.85 -28.75 -8.85 -27.45 -8.9 -25.55 -9.0 -23.75 -10.65 -20.6 -12.35 -17.5 -10.85 -12.9 -9.5 -8.75 -5.75 -6.45 L-4.05 -5.6 0.15 -3.85 M-0.75 4.45 Q-5.5 2.65 -7.55 1.45 L-7.65 1.4 -7.75 1.35"
         fill="none"
         stroke="#000000"
         stroke-linecap="round"
         stroke-linejoin="round"
         stroke-width="2.0"
         id="path9" /></g><g
       id="shape2"
       transform="matrix(1.0, 0.0, 0.0, 1.0, 23.25, 36.3)"><path
         d="M-4.85 -35.25 L-3.6 -35.25 -3.4 -35.25 -2.5 -35.2 1.55 -34.7 5.5 -33.45 8.9 -31.95 14.3 -28.65 Q18.75 -25.6 20.2 -21.3 20.8 -19.5 20.8 -18.7 20.8 -17.4 19.85 -17.2 L12.45 -17.1 Q6.0 -17.15 0.4 -21.35 -5.2 -25.6 -5.35 -29.6 -5.45 -33.65 -4.85 -35.25 M-9.65 -12.7 Q-9.35 -14.2 -9.45 -15.6 L-9.45 -16.2 Q-9.2 -17.4 -8.55 -17.05 -6.45 -16.1 -4.9 -14.1 -3.3 -12.15 -2.75 -10.6 L-2.7 -10.3 -2.65 -10.25 -2.65 -10.15 -2.6 -10.0 -2.35 -9.4 -2.25 -8.85 -2.0 -8.1 -1.95 -7.85 -1.45 -5.1 -1.75 -4.5 -2.25 -3.85 Q-2.95 -3.0 -5.05 -4.6 L-4.65 -4.2 Q-6.1 -5.4 -7.6 -8.5 L-9.65 -12.7"
         fill="#5e61bb"
         fill-rule="evenodd"
         stroke="none"
         id="path10" /><path
         d="M-4.85 -35.25 Q-5.45 -33.65 -5.35 -29.6 -5.2 -25.6 0.4 -21.35 6.0 -17.15 12.45 -17.1 L19.85 -17.2 Q20.8 -17.4 20.8 -18.7 L21.3 -14.0 Q21.45 -11.2 20.15 -5.85 18.8 -0.5 16.9 0.55 15.0 1.55 14.4 1.2 L14.3 1.1 13.7 0.8 Q12.95 0.2 12.75 -1.45 L12.75 -4.05 Q13.15 -9.85 10.25 -8.7 7.45 -7.6 6.9 -6.4 6.6 -5.75 6.4 -4.5 L6.35 -4.5 6.3 -4.05 6.25 -2.75 6.25 -1.8 6.25 0.95 Q6.2 3.0 5.75 4.3 5.3 5.55 4.4 6.1 L2.4 6.35 1.45 5.95 0.95 5.55 -0.2 3.35 -0.4 2.55 -0.85 0.0 -0.85 -0.05 -0.85 -0.25 -0.9 -0.45 -0.85 -0.25 -0.9 -0.3 -0.9 -0.45 -1.15 -3.1 -1.35 -4.5 -1.45 -5.1 -1.95 -7.85 -2.0 -8.1 -2.25 -8.85 -2.35 -9.4 -2.6 -10.0 -2.65 -10.15 -2.65 -10.25 -2.7 -10.3 -2.75 -10.6 Q-3.3 -12.15 -4.9 -14.1 -6.45 -16.1 -8.55 -17.05 -9.2 -17.4 -9.45 -16.2 L-9.45 -15.6 Q-9.35 -14.2 -9.65 -12.7 -9.85 -11.2 -10.45 -9.65 -11.6 -6.75 -10.05 -3.7 L-9.55 -2.55 Q-9.2 -1.45 -9.4 -0.7 L-9.7 0.0 -9.75 0.05 -10.15 0.45 -10.2 0.5 -10.8 0.85 Q-13.3 1.4 -15.65 -0.8 -18.0 -3.05 -20.05 -7.1 -22.1 -11.15 -22.25 -17.05 -22.45 -23.0 -18.95 -28.45 -15.45 -33.9 -11.25 -34.65 L-4.85 -35.25"
         fill="#7c7fd0"
         fill-rule="evenodd"
         stroke="none"
         id="path11" /><path
         d="M14.4 1.2 Q15.35 2.1 12.65 3.65 9.2 5.55 4.4 6.1 5.3 5.55 5.75 4.3 6.2 3.0 6.25 0.95 L6.25 -1.8 6.25 -2.75 6.3 -4.05 6.35 -4.5 6.4 -4.5 6.3 -4.05 6.4 -4.5 9.4 -3.35 12.75 -1.45 Q12.95 0.2 13.7 0.8 L14.3 1.1 14.4 1.2 M1.45 5.95 Q0.9 6.3 -3.45 4.65 -7.75 2.95 -10.8 0.85 L-10.2 0.5 -10.15 0.45 -9.75 0.05 -9.7 0.0 -9.4 -0.7 Q-9.2 -1.45 -9.55 -2.55 -6.95 -4.35 -5.75 -4.3 L-4.65 -4.2 -5.05 -4.6 Q-2.95 -3.0 -2.25 -3.85 L-1.75 -4.5 -1.35 -4.5 -1.15 -3.1 -0.9 -0.45 -0.9 -0.3 -0.85 -0.25 -0.85 -0.05 -0.85 0.0 -0.4 2.55 -0.2 3.35 0.95 5.55 1.45 5.95"
         fill="#000000"
         fill-opacity="0.14901961"
         fill-rule="evenodd"
         stroke="none"
         id="path12" /><path
         d="M20.8 -18.7 Q20.8 -19.5 20.2 -21.3 18.75 -25.6 14.3 -28.65 L8.9 -31.95 5.5 -33.45 1.55 -34.7 -2.5 -35.2 -3.4 -35.25 -3.6 -35.25 -4.85 -35.25 -11.25 -34.65 Q-15.45 -33.9 -18.95 -28.45 -22.45 -23.0 -22.25 -17.05 -22.1 -11.15 -20.05 -7.1 -18.0 -3.05 -15.65 -0.8 -13.3 1.4 -10.8 0.85 L-10.2 0.5 -10.15 0.45 -9.75 0.05 -9.7 0.0 -9.4 -0.7 Q-9.2 -1.45 -9.55 -2.55 L-10.05 -3.7 Q-11.6 -6.75 -10.45 -9.65 -9.85 -11.2 -9.65 -12.7 L-7.6 -8.5 Q-6.1 -5.4 -4.65 -4.2 L-5.05 -4.6 Q-2.95 -3.0 -2.25 -3.85 L-1.75 -4.5 -1.45 -5.1 -1.35 -4.5 -1.15 -3.1 -0.9 -0.45 -0.85 -0.25 -0.85 -0.05 -0.85 0.0 -0.4 2.55 -0.2 3.35 0.95 5.55 1.45 5.95 2.4 6.35 4.4 6.1 Q5.3 5.55 5.75 4.3 6.2 3.0 6.25 0.95 L6.25 -1.8 6.25 -2.75 6.3 -4.05 6.4 -4.5 Q6.6 -5.75 6.9 -6.4 7.45 -7.6 10.25 -8.7 13.15 -9.85 12.75 -4.05 L12.75 -1.45 Q12.95 0.2 13.7 0.8 L14.3 1.1 14.4 1.2 Q15.0 1.55 16.9 0.55 18.8 -0.5 20.15 -5.85 21.45 -11.2 21.3 -14.0 L20.8 -18.7 M-9.65 -12.7 Q-9.35 -14.2 -9.45 -15.6 L-9.45 -16.2 Q-9.2 -17.4 -8.55 -17.05 -6.45 -16.1 -4.9 -14.1 -3.3 -12.15 -2.75 -10.6 L-2.7 -10.3 -2.65 -10.25 -2.65 -10.15 -2.6 -10.0 -2.35 -9.4 -2.25 -8.85 -2.0 -8.1 -1.95 -7.85 -1.45 -5.1 M-0.9 -0.45 L-0.9 -0.3 -0.85 -0.25"
         fill="none"
         stroke="#000000"
         stroke-linecap="round"
         stroke-linejoin="round"
         stroke-width="2.0"
         id="path13" /></g><g
       id="shape3"
       transform="matrix(1.0, 0.0, 0.0, 1.0, 15.5, 11.45)"><path
         d="M12.7 -1.4 L12.45 -1.05 Q11.15 0.8 8.1 3.0 L4.4 5.7 7.15 3.35 12.7 -1.4 M-3.0 8.8 Q-4.45 8.0 -6.25 6.1 L-10.15 1.4 -11.15 0.05 -10.4 0.9 Q-5.65 6.2 -2.95 8.55 L-3.0 8.8 M-14.5 -6.85 L-14.3 -7.95 -14.25 -8.05 -13.3 -5.75 -14.45 -7.2 -14.5 -6.85 M-12.35 -10.45 Q-10.3 -10.35 -6.6 -9.0 -2.95 -7.7 3.1 -7.6 L10.6 -7.2 Q12.1 -6.9 12.85 -5.85 L13.0 -5.65 10.15 -2.7 Q7.75 -0.2 4.5 2.0 L-0.35 5.4 -1.0 5.95 Q-0.6 6.85 -4.0 3.7 -7.45 0.5 -9.7 -3.15 -11.95 -6.85 -12.0 -8.3 -12.1 -9.8 -12.35 -10.45"
         fill="#e55252"
         fill-rule="evenodd"
         stroke="none"
         id="path14" /><path
         d="M13.0 -5.65 L13.65 -3.9 Q13.75 -3.05 12.7 -1.4 L7.15 3.35 4.4 5.7 3.15 6.6 Q-0.25 9.4 -1.05 9.4 -1.95 9.4 -3.0 8.8 L-2.95 8.55 Q-5.65 6.2 -10.4 0.9 L-11.15 0.05 -13.7 -3.85 -14.1 -4.7 -14.5 -6.6 -14.5 -6.85 -14.45 -7.2 -13.3 -5.75 -14.25 -8.05 -14.25 -8.1 -14.1 -8.55 -12.5 -10.4 -12.45 -10.45 -12.35 -10.45 Q-12.1 -9.8 -12.0 -8.3 -11.95 -6.85 -9.7 -3.15 -7.45 0.5 -4.0 3.7 -0.6 6.85 -1.0 5.95 L-0.35 5.4 4.5 2.0 Q7.75 -0.2 10.15 -2.7 L13.0 -5.65 M-14.1 -8.55 L-14.25 -8.05 -14.1 -8.55"
         fill="#fab7b7"
         fill-rule="evenodd"
         stroke="none"
         id="path15" /><path
         d="M13.0 -5.65 L13.65 -3.9 Q13.75 -3.05 12.7 -1.4 L12.45 -1.05 Q11.15 0.8 8.1 3.0 L4.4 5.7 3.15 6.6 Q-0.25 9.4 -1.05 9.4 -1.95 9.4 -3.0 8.8 -4.45 8.0 -6.25 6.1 L-10.15 1.4 -11.15 0.05 -13.7 -3.85 -14.1 -4.7 -14.5 -6.6 -14.5 -6.85 -14.3 -7.95 -14.25 -8.05 -14.1 -8.55 -12.5 -10.4 -12.45 -10.45 -12.35 -10.45 Q-10.3 -10.35 -6.6 -9.0 -2.95 -7.7 3.1 -7.6 L10.6 -7.2 Q12.1 -6.9 12.85 -5.85 L13.0 -5.65 Z"
         fill="none"
         stroke="#000000"
         stroke-linecap="round"
         stroke-linejoin="round"
         stroke-width="2.0"
         id="path16" /></g><g
       id="shape4"
       transform="matrix(1.0, 0.0, 0.0, 1.0, 20.75, 30.75)"><path
         d="M-6.45 -22.15 L6.6 -22.15 Q7.15 -23.4 9.85 -26.0 12.0 -28.15 13.75 -29.1 15.65 -28.25 15.7 -21.65 15.75 -15.05 17.45 -11.65 L19.45 -7.25 Q23.2 3.4 5.35 5.65 -2.5 6.15 -6.65 5.4 -10.8 4.65 -14.6 2.0 -18.45 -0.65 -19.35 -3.9 -20.3 -7.2 -18.9 -13.4 -17.5 -19.65 -16.0 -23.0 -14.5 -26.35 -12.45 -28.45 -10.4 -30.55 -9.75 -29.3 -7.05 -23.75 -6.45 -22.15 M-10.3 -22.05 Q-11.1 -25.35 -12.1 -25.2 -12.55 -25.15 -13.2 -23.85 L-13.95 -22.05 -14.1 -20.95 Q-14.15 -20.35 -13.4 -20.35 -12.65 -20.35 -11.45 -21.05 -10.3 -21.75 -10.3 -22.05 M13.55 -22.9 Q13.45 -25.4 12.0 -23.85 10.55 -22.3 10.45 -21.85 10.35 -21.35 10.9 -20.95 11.45 -20.6 12.55 -20.5 13.65 -20.45 13.55 -22.9"
         fill="#7c7fd0"
         fill-rule="evenodd"
         stroke="none"
         id="path17" /><path
         d="M13.55 -22.9 Q13.65 -20.45 12.55 -20.5 11.45 -20.6 10.9 -20.95 10.35 -21.35 10.45 -21.85 10.55 -22.3 12.0 -23.85 13.45 -25.4 13.55 -22.9 M-10.3 -22.05 Q-10.3 -21.75 -11.45 -21.05 -12.65 -20.35 -13.4 -20.35 -14.15 -20.35 -14.1 -20.95 L-13.95 -22.05 -13.2 -23.85 Q-12.55 -25.15 -12.1 -25.2 -11.1 -25.35 -10.3 -22.05"
         fill="#fab7b7"
         fill-rule="evenodd"
         stroke="none"
         id="path18" /><path
         d="M-6.45 -22.15 L6.6 -22.15 Q7.15 -23.4 9.85 -26.0 12.0 -28.15 13.75 -29.1 15.65 -28.25 15.7 -21.65 15.75 -15.05 17.45 -11.65 L19.45 -7.25 Q23.2 3.4 5.35 5.65 -2.5 6.15 -6.65 5.4 -10.8 4.65 -14.6 2.0 -18.45 -0.65 -19.35 -3.9 -20.3 -7.2 -18.9 -13.4 -17.5 -19.65 -16.0 -23.0 -14.5 -26.35 -12.45 -28.45 -10.4 -30.55 -9.75 -29.3 -7.05 -23.75 -6.45 -22.15 Z"
         fill="none"
         stroke="#000000"
         stroke-linecap="round"
         stroke-linejoin="round"
         stroke-width="2.0"
         id="path19" /></g><g
       id="shape5"
       transform="matrix(1.0, 0.0, 0.0, 1.0, 9.6, 3.85)"><path
         d="M11.7 -1.3 Q11.7 -0.85 11.25 -0.35 10.7 0.3 9.85 0.3 8.65 0.3 8.4 -0.6 L8.4 -1.5 Q8.4 -3.85 10.05 -3.85 11.7 -3.85 11.7 -1.3 M-6.3 -1.3 Q-6.3 -0.85 -6.75 -0.35 -7.3 0.3 -8.15 0.3 -9.35 0.3 -9.6 -0.6 L-9.6 -1.5 Q-9.6 -3.85 -7.95 -3.85 -6.3 -3.85 -6.3 -1.3"
         fill="#000000"
         fill-rule="evenodd"
         stroke="none"
         id="path20" /><path
         d="M-3.15 3.05 Q-2.9 4.8 -2.25 5.3 -1.65 5.8 -0.65 5.9 0.3 5.95 1.15 5.3 2.0 4.65 2.2 3.8 2.25 4.6 3.15 5.3 4.1 6.05 5.2 6.05 6.35 6.05 7.0 5.0 7.65 3.9 7.4 3.25"
         fill="none"
         stroke="#000000"
         stroke-linecap="round"
         stroke-linejoin="round"
         stroke-width="1.7000000000000002"
         id="path21" /></g></defs><sodipodi:namedview
     id="namedview3"
     pagecolor="#ffffff"
     bordercolor="#000000"
     borderopacity="0.25"
     inkscape:showpageshadow="2"
     inkscape:pageopacity="0.0"
     inkscape:pagecheckerboard="0"
     inkscape:deskcolor="#d1d1d1"
     inkscape:zoom="4.953125"
     inkscape:cx="63.899054"
     inkscape:cy="64"
     inkscape:window-width="1536"
     inkscape:window-height="836"
     inkscape:window-x="0"
     inkscape:window-y="0"
     inkscape:window-maximized="1"
     inkscape:current-layer="svg3" /><g
     transform="matrix(1.5751078,0,0,1.5751078,1.7706933,9.6392889)"
     id="g6"><use
       ffdec:characterId="102"
       height="97.050003"
       transform="matrix(0.6698,0,0,0.711,7.3676,0.0111)"
       width="97.050003"
       xlink:href="#shape0"
       id="use1" /><use
       ffdec:characterId="103"
       height="36"
       transform="matrix(0.9224,0.3862,-0.3862,0.9224,12.5929,-1.3189)"
       width="23.65"
       xlink:href="#shape1"
       id="use2" /><use
       ffdec:characterId="104"
       height="43.75"
       transform="translate(13.3,25)"
       width="45.549999"
       xlink:href="#shape2"
       id="use3" /><use
       ffdec:characterId="105"
       height="21.85"
       transform="matrix(-1,0,0,1,62.8,30.2)"
       width="30.15"
       xlink:href="#shape3"
       id="use4" /><use
       ffdec:characterId="106"
       height="37.599998"
       transform="translate(30.7,4.35)"
       width="41.849998"
       xlink:href="#shape4"
       id="use5" /><use
       ffdec:characterId="107"
       height="10.75"
       transform="translate(43.75,23.2)"
       width="21.299999"
       xlink:href="#shape5"
       id="use6" /></g></svg>
